# xmcd
#
# Track frame offsets: 
#        150
#        15013
#        28055
#        41488
#        58385
#        73208
#        86528
#        100117
#        113277
#        127101
#        137864
#        152270
#        162623
#        177837
#        190763
#        205789
#        217312
#        227193
#        237124
#        250805
#        261711
#        272601
#        287275
#        305047
#        317641
#
# Disc length: 4372 seconds
#
# Revision: 1
# Processed by: cddbd v1.5.2PL0 Copyright (c) Steve Scherf et al.
# Submitted via: ExactAudioCopyFreeDBPlugin 1.0
#
DISCID=67111219
DTITLE=Will Tura - The Real... Will Tura [CD3-3]
DYEAR=2017
DGENRE=Easy Listening
TTITLE0=Het kan niet zijn  (1969)
TTITLE1=Hetgeen je niet krijgen kan  (1969)
TTITLE2=Zonneschijn  (1971)
TTITLE3=Aan mijn darling  (1971)
TTITLE4=Linda  (1970)
TTITLE5=Zonder jou ben ik verloren  (1972)
TTITLE6=Wat je diep treft  (1972)
TTITLE7=Dam-di-dam  (1969)
TTITLE8=Al wat je lust  (1971)
TTITLE9=In de koolmijn  (1969)
TTITLE10=Vlaanderen m'n land  (1969)
TTITLE11=Addio addio  (1970)
TTITLE12=Hij had alles en ik niets  (1970)
TTITLE13=Ballonnetjes (Les bulles de savon)  (1968)
TTITLE14=Moederogen  (1969)
TTITLE15=Zwarte duivel  (1969)
TTITLE16=Love is love is love  (1971)
TTITLE17=In de tijd van de charleston  (1972)
TTITLE18=Maartse buien en Aprilse grillen  (1972)
TTITLE19=Karnaval  (1972)
TTITLE20=Zo mooi als in een droom  (1972)
TTITLE21=Het is tijd  (1972)
TTITLE22=Beklaag me niet  (1971)
TTITLE23=Jij bent de mooiste  (1972)
TTITLE24=Hallelujah  (1971)
EXTD=
EXTT0=
EXTT1=
EXTT2=
EXTT3=
EXTT4=
EXTT5=
EXTT6=
EXTT7=
EXTT8=
EXTT9=
EXTT10=
EXTT11=
EXTT12=
EXTT13=
EXTT14=
EXTT15=
EXTT16=
EXTT17=
EXTT18=
EXTT19=
EXTT20=
EXTT21=
EXTT22=
EXTT23=
EXTT24=
PLAYORDER=
